<svg id="color_line" height="512" viewBox="0 0 74 74" width="512" xmlns="http://www.w3.org/2000/svg" data-name="color line"><path d="m25.199 3h19.982v11.81h-19.982z" fill="#27ccbc"/><path d="m7.975 30.133h15.401v11.81h-15.401z" fill="#05afd6"/><path d="m50.624 59.19h15.401v11.81h-15.401z" fill="#fe7058"/><path d="m52.915 31.11h10.819v10.819h-10.819z" fill="#05afd6" transform="matrix(.707 -.707 .707 .707 -8.74 51.938)"/><circle cx="15.675" cy="65.095" fill="#fcd462" r="5.905"/><path d="m45.18 3v11.81h-2.31v-9.32h-17.67v-2.49z" fill="#21b3a9"/><path d="m23.38 30.13v11.81h-2.32v-9.32h-13.09v-2.49z" fill="#27a2db"/><path d="m66.03 59.19v11.81h-2.32v-9.32h-13.09v-2.49z" fill="#ea6453"/><path d="m65.97 36.52-2.4 2.4-7.56-7.56-5.25 5.25-.09-.09 7.65-7.65z" fill="#27a2db"/><path d="m21.58 65.09a5.858 5.858 0 0 1 -2.92 5.09 5.788 5.788 0 0 0 .61-2.6 5.907 5.907 0 0 0 -5.91-5.9 5.828 5.828 0 0 0 -2.99.82 5.905 5.905 0 0 1 11.21 2.59z" fill="#f7be56"/><path d="m25.2 9.4h-6.55a.5.5 0 0 1 0-1h6.55a.5.5 0 0 1 0 1z" fill="#323c6b"/><path d="m15.68 30.63a.5.5 0 0 1 -.5-.5v-18.26a.5.5 0 0 1 1 0v18.26a.5.5 0 0 1 -.5.5z" fill="#323c6b"/><circle cx="35.72" cy="36.52" fill="#fcd462" r="2.97"/><path d="m35.72 39.99a3.47 3.47 0 1 1 3.471-3.47 3.474 3.474 0 0 1 -3.471 3.47zm0-5.94a2.47 2.47 0 1 0 2.471 2.47 2.473 2.473 0 0 0 -2.471-2.47z" fill="#323c6b"/><path d="m50.67 37.02h-11.98a.5.5 0 0 1 0-1h11.98a.5.5 0 0 1 0 1z" fill="#323c6b"/><path d="m35.72 34.05a.5.5 0 0 1 -.5-.5v-18.74a.5.5 0 1 1 1 0v18.74a.5.5 0 0 1 -.5.5z" fill="#323c6b"/><path d="m15.676 59.689a.5.5 0 0 1 -.5-.5v-17.246a.5.5 0 0 1 1 0v17.246a.5.5 0 0 1 -.5.5z" fill="#323c6b"/><path d="m32.22 65.59h-10.64a.5.5 0 0 1 0-1h10.64a.5.5 0 0 1 0 1z" fill="#323c6b"/><path d="m50.67 65.59h-12.51a.5.5 0 0 1 0-1h12.51a.5.5 0 1 1 0 1z" fill="#323c6b"/><path d="m58.324 59.689a.5.5 0 0 1 -.5-.5v-15.02a.5.5 0 0 1 1 0v15.02a.5.5 0 0 1 -.5.5z" fill="#323c6b"/><path d="m38.16 65.09a2.97 2.97 0 1 1 -2.97-2.97 2.964 2.964 0 0 1 2.97 2.97z" fill="#05afd6"/><path d="m35.19 68.56a3.47 3.47 0 1 1 3.47-3.47 3.474 3.474 0 0 1 -3.47 3.47zm0-5.94a2.47 2.47 0 1 0 2.47 2.47 2.473 2.473 0 0 0 -2.47-2.47z" fill="#323c6b"/><path d="m18.65 8.9a2.97 2.97 0 1 1 -2.97-2.96 2.964 2.964 0 0 1 2.97 2.96z" fill="#fe7058"/><g fill="#323c6b"><path d="m15.68 12.37a3.465 3.465 0 1 1 3.47-3.47 3.474 3.474 0 0 1 -3.47 3.47zm0-5.93a2.465 2.465 0 1 0 2.47 2.46 2.468 2.468 0 0 0 -2.47-2.46z"/><path d="m28.771 18.311h-.5a.5.5 0 0 1 0-1h.5a.5.5 0 0 1 0 1z"/><path d="m26.25 18.311h-4.55v-5.561a.5.5 0 0 1 1 0v4.561h3.55a.5.5 0 0 1 0 1z"/><path d="m69.025 62.563a.5.5 0 0 1 -.5-.5v-5.374h-4.4a.5.5 0 0 1 0-1h5.4v6.373a.5.5 0 0 1 -.5.501z"/><path d="m69.025 64.875a.5.5 0 0 1 -.5-.5v-.437a.5.5 0 0 1 1 0v.438a.5.5 0 0 1 -.5.499z"/><path d="m45.682 15.311h-20.982v-12.811h20.982zm-19.982-1h18.982v-10.811h-18.982z"/><path d="m23.876 42.443h-16.401v-12.81h16.4zm-15.4-1h14.4v-10.81h-14.401z"/><path d="m66.525 71.5h-16.4v-12.811h16.4zm-15.4-1h14.4v-10.811h-14.4z"/><path d="m58.324 44.876-8.356-8.357 8.356-8.357 8.357 8.357zm-6.942-8.357 6.942 6.943 6.943-6.943-6.943-6.943z"/><path d="m15.676 71.5a6.405 6.405 0 1 1 6.4-6.405 6.412 6.412 0 0 1 -6.4 6.405zm0-11.811a5.405 5.405 0 1 0 5.4 5.405 5.411 5.411 0 0 0 -5.4-5.405z"/></g><path d="m36.37 11.874a.574.574 0 0 1 -.575.573l-6.076-.009a.574.574 0 0 1 0-1.149l6.081.011a.574.574 0 0 1 .57.574z" fill="#fff"/><path d="m38.685 11.877a.574.574 0 0 1 -.575.573h-.3a.574.574 0 1 1 0-1.149h.3a.574.574 0 0 1 .575.576z" fill="#fff"/></svg>